<?xml version="1.0" encoding="utf-8"?>
<svg xmlns="http://www.w3.org/2000/svg" width="280" height="280">
  <rect width="280" height="280" fill="#000000"/>
  <g transform="translate(-180, -4)">
    <path fill="#FFFFFF" d="M245.081,71.229c7.892-6.473,16.893-20.31,16.893-20.31s-2.884,0.159-6.729,2.273 c-4.786,2.632-10.741,7.333-10.741,7.333l0.582-5.822c0,0-4.741,3.756-7.768,8.729c-3.088,5.071-4.46,11.36-4.46,11.36 S238.543,76.589,245.081,71.229z M230.114,90.086c4.479-4.053,7.694-9.762,7.694-9.762s-2.735,1.362-5.283,1.773 c-1.853,0.298-3.742-0.317-3.742-0.317s-0.983-2.049-0.785-5.543c0.234-4.162,1.658-9.887,1.658-9.887s-5.305,5.723-7.599,12.605 c-0.645,1.934-1.126,3.942-1.491,5.888c-1.405,6.548-1.101,12.074-1.101,12.074S225.426,94.327,230.114,90.086z M221.729,111.418 c3.635-4.006,5.888-10.131,5.888-10.131s-3.078,1.718-6.243,2.449c-2.408,0.555-5.11,0.172-5.11,0.172s-0.847-2.492-1.185-6.058 c-0.601-6.355-0.272-16.361-0.272-16.361s-5.477,9.954-5.703,18.949c-0.209,8.3,4.249,16.569,4.249,16.569 S218.235,115.269,221.729,111.418z M211.314,136.515c0,0,5.326-4.017,8.2-8.705c2.648-4.321,2.863-9.347,2.863-9.347 s-2.567,1.404-5.3,2.467c-2.499,0.971-5.181,1.609-5.181,1.609s-2.973-3.246-4.799-7.509c-2.773-6.471-4.81-14.909-4.81-14.909 s-2.943,11.298-0.668,20.477C203.856,129.615,211.314,136.515,211.314,136.515z M212.77,158.641c0,0,3.673-3.872,5.651-8.749 c2.094-5.159,2.5-11.34,2.5-11.34l-8.441,7.569c0,0-4.536-3.005-8.433-8.16c-5.335-7.061-10.491-16.878-10.491-16.878 s-0.65,15.365,4.191,24.829C202.512,155.226,212.77,158.641,212.77,158.641z M218.301,179.021c0,0,3.242-3.754,4.261-8.588 c1.28-6.084,0.398-13.539,0.398-13.539s-1.477,3.089-3.359,5.913c-1.585,2.379-3.627,4.568-3.627,4.568s-5.294-2.132-10.464-7.007 c-7.273-6.861-15.448-18.032-15.448-18.032s0.754,16.66,7.68,25.535C204.788,176.901,218.301,179.021,218.301,179.021z M229.656,198.527c0,0,1.972-5.252,1.903-11.063c-0.076-6.391-2.194-13.394-2.194-13.394l-6.697,12.81c0,0-6.29,0.203-12.571-3.101 c-7.694-4.045-15.668-11.747-15.668-11.747s5.219,14.561,14.261,21.361C217.248,199.831,229.656,198.527,229.656,198.527z M243.339,215.414c0,0,0.928-5.921,0.051-11.314c-1.007-6.195-3.835-11.977-3.835-11.977s-0.536,4.23-1.805,8.035 c-1.037,3.112-2.854,5.939-2.854,5.939s-3.589,0.529-8.163,0.126c-6.562-0.581-14.837-2.163-14.837-2.163s4.47,6.184,12.52,9.091 C232.078,215.917,243.339,215.414,243.339,215.414z M249.744,205.223l-1.164,14.848c0,0-3.374,1.328-7.871,1.513 c-5.929,0.244-13.384-0.639-13.384-0.639s6.521,5.563,14.293,7.362c7.948,1.84,17.151-0.083,17.151-0.083s0.98-5.251-1.095-10.271 C255.264,212.118,249.744,205.223,249.744,205.223z M304.339,235.812c-4.975-2.746-12.38-4.387-12.38-4.387 s-7.459-1.217-14.534-3.28c-6.896-2.013-13.415-4.871-13.415-4.871s1.464,3.644,0.677,6.162c-0.657,2.102-3.588,3.153-3.588,3.153 l6.404,2.038c0,0,16.171,0.471,25.625,2.009c8.388,1.363,10.187,3.813,10.187,3.813s-1.023,1.077-4.626,1.657 c-5.144,0.83-12.843,0.673-12.843,0.673l5.53,5.241c0,0,6.063,0.739,11.299-0.777c4.789-1.388,8.791-5.047,8.791-5.047 S309.114,238.449,304.339,235.812z M394.738,71.229c6.537,5.36,12.223,3.563,12.223,3.563s-1.372-6.289-4.46-11.361 c-3.026-4.972-7.77-8.729-7.77-8.729l0.582,5.822c0,0-5.955-4.702-10.741-7.333c-3.844-2.115-6.728-2.273-6.728-2.273 S386.845,64.757,394.738,71.229z M409.705,90.086c4.688,4.24,10.647,6.833,10.647,6.833s0.306-5.52-1.097-12.063 c-0.364-1.95-0.85-3.964-1.493-5.9c-2.296-6.883-7.601-12.605-7.601-12.605s1.422,5.726,1.658,9.888 c0.197,3.495-0.785,5.543-0.785,5.543s-1.891,0.615-3.742,0.317c-2.547-0.412-5.282-1.773-5.282-1.773 S405.224,86.034,409.705,90.086z M412.2,101.287c0,0,2.253,6.125,5.889,10.131c3.495,3.853,8.378,5.59,8.378,5.59 s4.457-8.27,4.249-16.569c-0.229-8.995-5.704-18.949-5.704-18.949s0.328,10.006-0.272,16.361c-0.338,3.565-1.184,6.057-1.184,6.057 s-2.703,0.384-5.112-0.172C415.279,103.005,412.2,101.287,412.2,101.287z M422.741,120.93c-2.73-1.063-5.301-2.467-5.301-2.467 s0.216,5.024,2.864,9.347c2.874,4.688,8.2,8.705,8.2,8.705s7.457-6.9,9.691-15.917c2.275-9.179-0.668-20.477-0.668-20.477 s-2.035,8.438-4.81,14.908c-1.827,4.264-4.798,7.51-4.798,7.51S425.24,121.901,422.741,120.93z M427.34,146.123l-8.443-7.568 c0,0,0.406,6.181,2.5,11.339c1.979,4.878,5.652,8.75,5.652,8.75s10.258-3.416,15.021-12.729c4.843-9.464,4.193-24.829,4.193-24.829 s-5.156,9.818-10.492,16.878C431.875,143.117,427.34,146.123,427.34,146.123z M434.309,160.369 c-5.171,4.876-10.464,7.008-10.464,7.008s-2.042-2.19-3.628-4.568c-1.883-2.823-3.359-5.913-3.359-5.913s-0.883,7.454,0.399,13.539 c1.017,4.834,4.259,8.588,4.259,8.588s13.514-2.121,20.562-11.15c6.928-8.874,7.68-25.534,7.68-25.534 S441.584,153.508,434.309,160.369z M417.149,186.881l-6.696-12.81c0,0-2.116,7.002-2.192,13.394 c-0.069,5.81,1.901,11.063,1.901,11.063s12.408,1.304,20.968-5.133c9.042-6.801,14.262-21.361,14.262-21.361 s-7.977,7.702-15.668,11.747C423.438,187.084,417.149,186.881,417.149,186.881z M404.922,206.096c0,0-1.815-2.827-2.854-5.939 c-1.269-3.805-1.805-8.035-1.805-8.035s-2.829,5.781-3.835,11.977c-0.877,5.395,0.05,11.314,0.05,11.314s11.262,0.503,18.923-2.264 c8.051-2.907,12.521-9.091,12.521-9.091s-8.277,1.581-14.839,2.162C408.51,206.626,404.922,206.096,404.922,206.096z M399.109,221.584c-4.498-0.186-7.871-1.513-7.871-1.513l-1.165-14.848c0,0-5.52,6.894-7.933,12.729 c-2.075,5.021-1.094,10.271-1.094,10.271s9.202,1.925,17.149,0.083c7.772-1.8,14.293-7.362,14.293-7.362 S405.038,221.828,399.109,221.584z M375.131,229.436c-0.787-2.521,0.677-6.161,0.677-6.161s-6.519,2.858-13.415,4.87 c-7.076,2.063-14.534,3.28-14.534,3.28s-7.405,1.64-12.378,4.387c-4.775,2.637-7.128,6.387-7.128,6.387s4.003,3.658,8.79,5.046 c5.236,1.519,11.299,0.777,11.299,0.777l5.531-5.241c0,0-7.699,0.158-12.843-0.671c-3.603-0.582-4.625-1.658-4.625-1.658 s1.798-2.45,10.186-3.813c9.454-1.538,25.624-2.009,25.624-2.009l6.405-2.038C378.719,232.59,375.788,231.538,375.131,229.436z"/>
    <circle cx="320" cy="136.65" r="87.45" fill="#253381" stroke="#FFFFFF" stroke-width="2.1496"/>
    <circle cx="320" cy="136.65" r="81.32" fill="#253381" stroke="#FFFFFF" stroke-width="4.2000"/>
    <path fill="#FFFFFF" d="M316.675,139.02c0.003,0,0.004,0,0.004,0h-0.007c-0.354-0.006-16.407-0.262-19.06-2.913 c-2.651-2.651-2.907-18.705-2.912-19.059v-0.007c0,0,0,0.001,0,0.004c0-0.003,0-0.004,0-0.004v0.007 c-0.006,0.354-0.261,16.407-2.913,19.059c-2.637,2.638-18.537,2.905-19.051,2.913h-0.013c0,0,0.003,0,0.007,0 c-0.004,0-0.007,0-0.007,0h0.013c0.515,0.007,16.414,0.275,19.051,2.912c2.652,2.651,2.907,18.705,2.913,19.059v0.007 c0,0,0-0.001,0-0.004c0,0.002,0,0.004,0,0.004v-0.007c0.006-0.354,0.261-16.406,2.913-19.059 c2.651-2.651,18.705-2.907,19.059-2.912h0.007C316.678,139.02,316.677,139.02,316.675,139.02z"/>
    <path fill="#FFFFFF" d="M353.525,113.174c0.002,0,0.003,0,0.003,0h-0.006c-0.272-0.004-12.656-0.2-14.701-2.246 s-2.242-14.429-2.247-14.7v-0.004c0,0,0,0,0,0.002c0-0.001,0-0.002,0-0.002v0.004c-0.004,0.271-0.201,12.654-2.245,14.7 c-2.034,2.034-14.299,2.24-14.696,2.246h-0.011c0,0,0.003,0,0.007,0c-0.004,0-0.007,0-0.007,0h0.011 c0.397,0.007,12.662,0.212,14.696,2.247c2.045,2.045,2.242,14.43,2.245,14.701v0.006c0,0,0-0.001,0-0.003c0,0.002,0,0.003,0,0.003 v-0.006c0.005-0.271,0.202-12.656,2.248-14.701c2.045-2.045,14.428-2.243,14.7-2.247h0.006 C353.527,113.174,353.526,113.174,353.525,113.174z"/>
    <path fill="#FFFFFF" d="M361.284,157.443c0.001,0,0.003,0,0.003,0h-0.006c-0.253-0.004-11.813-0.189-13.722-2.097 c-1.91-1.909-2.094-13.469-2.098-13.724v-0.005c0,0,0,0.001,0,0.003c0-0.001,0-0.003,0-0.003v0.005 c-0.005,0.254-0.188,11.813-2.098,13.723c-1.898,1.898-13.347,2.092-13.717,2.098h-0.01c0,0,0.002,0,0.005,0 c-0.003,0-0.005,0-0.005,0h0.01c0.37,0.007,11.818,0.199,13.717,2.097c1.91,1.91,2.094,13.469,2.098,13.723v0.006c0,0,0,0,0-0.002 c0,0.001,0,0.002,0,0.002v-0.006c0.005-0.253,0.188-11.813,2.098-13.723c1.909-1.909,13.469-2.093,13.722-2.097h0.006 C361.287,157.443,361.285,157.443,361.284,157.443z"/>
    <circle cx="347.919" cy="136.197" r="3.676" fill="#FFFFFF"/>
    <circle cx="326.039" cy="150.310" r="3.676" fill="#FFFFFF"/>
    <circle cx="301.844" cy="176.746" r="3.676" fill="#FFFFFF"/>
    <circle cx="319.915" cy="127.409" r="3.415" fill="#FFFFFF"/>
    <circle cx="320.119" cy="169.431" r="3.627" fill="#FFFFFF"/>
    <circle cx="271.824" cy="171.966" r="3.676" fill="#FFFFFF"/>
    <circle cx="388.092" cy="107.809" r="3.676" fill="#FFFFFF"/>
    <circle cx="368.008" cy="100.078" r="3.709" fill="#FFFFFF"/>
    <circle cx="319.468" cy="137.615" r="2.697" fill="#FFFFFF"/>
    <circle cx="282.627" cy="170.373" r="2.697" fill="#FFFFFF"/>
    <circle cx="251.462" cy="157.331" r="2.697" fill="#FFFFFF"/>
    <circle cx="331.265" cy="068.166" r="2.697" fill="#FFFFFF"/>
    <circle cx="345.639" cy="065.969" r="2.697" fill="#FFFFFF"/>
    <circle cx="256.214" cy="127.479" r="2.979" fill="#FFFFFF"/>
    <circle cx="250.233" cy="148.636" r="2.978" fill="#FFFFFF"/>
    <circle cx="304.118" cy="094.751" r="2.979" fill="#FFFFFF"/>
    <circle cx="291.237" cy="095.629" r="2.018" fill="#FFFFFF"/>
    <circle cx="315.118" cy="083.972" r="2.018" fill="#FFFFFF"/>
    <circle cx="320.296" cy="117.625" r="2.018" fill="#FFFFFF"/>
    <circle cx="300.400" cy="128.804" r="2.018" fill="#FFFFFF"/>
    <circle cx="309.013" cy="145.731" r="2.019" fill="#FFFFFF"/>
    <circle cx="312.448" cy="162.657" r="2.018" fill="#FFFFFF"/>
    <circle cx="312.747" cy="151.705" r="2.019" fill="#FFFFFF"/>
    <circle cx="320.114" cy="154.094" r="2.018" fill="#FFFFFF"/>
    <circle cx="349.040" cy="146.128" r="2.018" fill="#FFFFFF"/>
    <circle cx="337.240" cy="150.850" r="2.018" fill="#FFFFFF"/>
    <circle cx="362.332" cy="124.622" r="2.018" fill="#FFFFFF"/>
    <circle cx="320.911" cy="144.635" r="2.019" fill="#FFFFFF"/>
    <circle cx="330.669" cy="161.064" r="2.018" fill="#FFFFFF"/>
    <circle cx="367.709" cy="125.816" r="2.019" fill="#FFFFFF"/>
    <circle cx="383.639" cy="115.212" r="2.018" fill="#FFFFFF"/>
    <circle cx="383.400" cy="142.550" r="2.400" fill="#FFFFFF"/>
    <circle cx="359.145" cy="108.890" r="2.018" fill="#FFFFFF"/>
    <circle cx="371.890" cy="105.206" r="2.018" fill="#FFFFFF"/>
    <circle cx="373.534" cy="111.479" r="2.018" fill="#FFFFFF"/>
    <circle cx="362.531" cy="090.569" r="2.019" fill="#FFFFFF"/>
    <circle cx="376.072" cy="095.349" r="2.018" fill="#FFFFFF"/>
    <circle cx="368.008" cy="080.015" r="2.018" fill="#FFFFFF"/>
    <circle cx="299.604" cy="155.090" r="2.019" fill="#FFFFFF"/>
    <circle cx="297.911" cy="169.826" r="2.019" fill="#FFFFFF"/>
    <circle cx="288.452" cy="172.713" r="2.019" fill="#FFFFFF"/>
    <circle cx="284.071" cy="160.765" r="2.018" fill="#FFFFFF"/>
    <circle cx="291.339" cy="160.766" r="2.018" fill="#FFFFFF"/>
    <circle cx="273.716" cy="153.696" r="2.018" fill="#FFFFFF"/>
    <circle cx="280.337" cy="142.694" r="2.018" fill="#FFFFFF"/>
    <circle cx="267.343" cy="136.271" r="2.018" fill="#FFFFFF"/>
    <circle cx="250.019" cy="114.615" r="2.018" fill="#FFFFFF"/>
    <circle cx="255.125" cy="174.292" r="2.018" fill="#FFFFFF"/>
    <circle cx="268.140" cy="186.006" r="2.018" fill="#FFFFFF"/>
    <circle cx="279.890" cy="176.447" r="2.018" fill="#FFFFFF"/>
    <circle cx="331.265" cy="210.599" r="2.018" fill="#FFFFFF"/>
    <circle cx="274.513" cy="187.151" r="2.018" fill="#FFFFFF"/>
    <circle cx="276.703" cy="198.253" r="2.018" fill="#FFFFFF"/>
    <circle cx="288.054" cy="189.540" r="2.018" fill="#FFFFFF"/>
    <circle cx="327.881" cy="193.424" r="2.018" fill="#FFFFFF"/>
    <circle cx="330.968" cy="180.281" r="2.018" fill="#FFFFFF"/>
    <circle cx="375.624" cy="182.073" r="2.018" fill="#FFFFFF"/>
    <circle cx="365.469" cy="150.609" r="2.018" fill="#FFFFFF"/>
    <circle cx="357.257" cy="140.003" r="2.206" fill="#FFFFFF"/>
    <circle cx="353.085" cy="132.550" r="2.155" fill="#FFFFFF"/>
    <circle cx="332.721" cy="134.739" r="2.279" fill="#FFFFFF"/>
    <circle cx="350.344" cy="108.453" r="2.279" fill="#FFFFFF"/>
    <circle cx="345.604" cy="119.544" r="2.353" fill="#FFFFFF"/>
    <circle cx="323.500" cy="190.038" r="2.018" fill="#FFFFFF"/>
    <circle cx="335.448" cy="177.293" r="2.018" fill="#FFFFFF"/>
    <circle cx="367.111" cy="113.570" r="2.018" fill="#FFFFFF"/>
    <circle cx="352.801" cy="117.878" r="2.190" fill="#FFFFFF"/>
    <circle cx="277.898" cy="093.407" r="2.697" fill="#FFFFFF"/>
    <circle cx="328.478" cy="175.252" r="2.697" fill="#FFFFFF"/>
    <circle cx="336.195" cy="188.545" r="2.697" fill="#FFFFFF"/>
    <circle cx="292.883" cy="191.531" r="2.697" fill="#FFFFFF"/>
    <circle cx="291.636" cy="183.762" r="2.894" fill="#FFFFFF"/>
    <circle cx="291.520" cy="068.284" r="2.977" fill="#FFFFFF"/>
    <circle cx="355.611" cy="123.626" r="2.978" fill="#FFFFFF"/>
    <circle cx="379.657" cy="120.888" r="2.977" fill="#FFFFFF"/>
    <circle cx="388.020" cy="161.811" r="2.977" fill="#FFFFFF"/>
    <circle cx="389.813" cy="126.414" r="2.978" fill="#FFFFFF"/>
    <circle cx="337.762" cy="139.183" r="2.697" fill="#FFFFFF"/>
  </g>
</svg>
