<?xml version="1.0" encoding="utf-8"?>
<svg xmlns="http://www.w3.org/2000/svg" width="177" height="44">
  <defs>
    <radialGradient cx="1.0" cy="0" r="1.1" id="gradientBorder">
      <stop offset="000%" stop-color="#ebebeb"/>
      <stop offset="100%" stop-color="#9c9c9c"/>
    </radialGradient>
    <radialGradient cx="1.5" cy="0" r="2.0" id="gradientBlack">
      <stop offset="000%" stop-color="#ffffff"/>
      <stop offset="010%" stop-color="#555555"/>
      <stop offset="100%" stop-color="#000000"/>
    </radialGradient>
  </defs>
  <rect x="001" y="1" rx="4" width="175" height="42" fill="url(#gradientBlack)" stroke="url(#gradientBorder)" stroke-width="2"/>
  <rect x="007" y="5" rx="2" width="031" height="34" fill="url(#gradientBlack)"/>
  <rect x="015" y="7" rx="2" width="015" height="30" fill="url(#gradientBlack)" stroke="url(#gradientBorder)" stroke-width="1"/>
  <rect x="040" y="5" rx="2" width="031" height="34" fill="url(#gradientBlack)"/>
  <rect x="048" y="7" rx="2" width="015" height="30" fill="url(#gradientBlack)" stroke="url(#gradientBorder)" stroke-width="1"/>
  <rect x="073" y="5" rx="2" width="031" height="34" fill="url(#gradientBlack)"/>
  <rect x="081" y="7" rx="2" width="015" height="30" fill="url(#gradientBlack)" stroke="url(#gradientBorder)" stroke-width="1"/>
  <rect x="106" y="5" rx="2" width="031" height="34" fill="url(#gradientBlack)"/>
  <rect x="114" y="7" rx="2" width="015" height="30" fill="url(#gradientBlack)" stroke="url(#gradientBorder)" stroke-width="1"/>
  <rect x="139" y="5" rx="2" width="031" height="34" fill="url(#gradientBlack)"/>
  <rect x="147" y="7" rx="2" width="015" height="30" fill="url(#gradientBlack)" stroke="url(#gradientBorder)" stroke-width="1"/>
</svg>