<?xml version="1.0" encoding="utf-8"?>
<svg xmlns="http://www.w3.org/2000/svg" width="80" height="80">
  <defs>
    <radialGradient r="1" id="gradientGold">
      <stop offset="000%" stop-color="#ccaa22"/>
      <stop offset="050%" stop-color="#995500"/>
      <stop offset="100%" stop-color="#000000"/>
    </radialGradient>
  </defs>
  <g>
    <polygon points="40.000,80.000 01.958,52.361 20.979,46.180 40.000,60.000" fill="url(#gradientGold)"/>
    <polygon points="01.958,52.361 16.489,07.639 28.244,23.820 20.979,46.180" fill="url(#gradientGold)"/>
    <polygon points="16.489,07.639 63.511,07.639 51.756,23.820 28.244,23.820" fill="url(#gradientGold)"/>
    <polygon points="63.511,07.639 78.042,52.361 59.021,46.180 51.756,23.820" fill="url(#gradientGold)"/>
    <polygon points="78.042,52.361 40.000,80.000 40.000,60.000 59.021,46.180" fill="url(#gradientGold)"/>
  </g>
  <g>
    <polygon points="40,35 40,20 26,03" fill="url(#gradientGold)"/>
    <polygon points="40,35 40,20 54,03" fill="url(#gradientGold)"/>
    <polygon points="40,20 36,10 26,03" fill="url(#gradientGold)"/>
    <polygon points="40,20 44,10 54,03" fill="url(#gradientGold)"/>
    <polygon points="40,20 36,10 40,00" fill="url(#gradientGold)"/>
    <polygon points="40,20 44,10 40,00" fill="url(#gradientGold)"/>
  </g>
  <g transform="rotate(72, 40, 40)">
    <polygon points="40,35 40,20 26,03" fill="url(#gradientGold)"/>
    <polygon points="40,35 40,20 54,03" fill="url(#gradientGold)"/>
    <polygon points="40,20 36,10 26,03" fill="url(#gradientGold)"/>
    <polygon points="40,20 44,10 54,03" fill="url(#gradientGold)"/>
    <polygon points="40,20 36,10 40,00" fill="url(#gradientGold)"/>
    <polygon points="40,20 44,10 40,00" fill="url(#gradientGold)"/>
  </g>
  <g transform="rotate(288, 40, 40)">
    <polygon points="40,35 40,20 26,03" fill="url(#gradientGold)"/>
    <polygon points="40,35 40,20 54,03" fill="url(#gradientGold)"/>
    <polygon points="40,20 36,10 26,03" fill="url(#gradientGold)"/>
    <polygon points="40,20 44,10 54,03" fill="url(#gradientGold)"/>
    <polygon points="40,20 36,10 40,00" fill="url(#gradientGold)"/>
    <polygon points="40,20 44,10 40,00" fill="url(#gradientGold)"/>
  </g>
</svg>